<svg version="1.2" xmlns="http://www.w3.org/2000/svg" viewBox="0 0 1684 2501" width="505" height="750">
	<style>
		.s0 { fill: #0acf83 } 
		.s1 { fill: #a259ff } 
		.s2 { fill: #f24e1e } 
		.s3 { fill: #ff7262 } 
		.s4 { fill: #1abcfe } 
	</style>
	<path id="path0_fill" class="s0" d="m425.09 2500.5c230.04 0 416.75-186.7 416.75-416.75v-416.75h-416.75c-230.05 0-416.75 186.7-416.75 416.75 0 230.05 186.7 416.75 416.75 416.75z"/>
	<path id="path1_fill" class="s1" d="m8.34 1250.25c0-230.05 186.7-416.75 416.75-416.75h416.75v833.5h-416.75c-230.05 0-416.75-186.7-416.75-416.75z"/>
	<path id="path1_fill_1_" class="s2" d="m8.34 416.75c0-230.05 186.7-416.75 416.75-416.75h416.75v833.5h-416.75c-230.05 0-416.75-186.7-416.75-416.75z"/>
	<path id="path2_fill" class="s3" d="m841.84 0h416.75c230.04 0 416.75 186.7 416.75 416.75 0 230.05-186.71 416.75-416.75 416.75h-416.75z"/>
	<path id="path3_fill" class="s4" d="m1675.34 1250.25c0 230.05-186.71 416.75-416.75 416.75-230.05 0-416.75-186.7-416.75-416.75 0-230.05 186.7-416.75 416.75-416.75 230.04 0 416.75 186.7 416.75 416.75z"/>
</svg>